<svg xmlns="http://www.w3.org/2000/svg" xmlns:xlink="http://www.w3.org/1999/xlink" viewBox="0 0 60 300">
  <defs>
    <style>
      .cls-1 {
        clip-path: url(#clip-Custom_Size_1);
      }

      .cls-2 {
        font-size: 9px;
      }

      .cls-2, .cls-4 {
        font-family: Avenir-Book, Avenir;
      }

      .cls-10, .cls-3 {
        fill: #fff;
      }

      .cls-3 {
        stroke: #babdbf;
      }

      .cls-3, .cls-5 {
        stroke-width: 0.7px;
      }

      .cls-4 {
        font-size: 7px;
      }

      .cls-5, .cls-7, .cls-9 {
        fill: none;
      }

      .cls-5 {
        stroke: #95989a;
      }

      .cls-6 {
        fill: #007aff;
      }

      .cls-7 {
        stroke: #007aff;
      }

      .cls-8 {
        stroke: none;
      }
    </style>
    <clipPath id="clip-Custom_Size_1">
      <rect width="60" height="300"/>
    </clipPath>
  </defs>
  <g id="Custom_Size_1" data-name="Custom Size – 1" class="cls-1">
    <rect class="cls-10" width="60" height="300"/>
    <text id="Sort_by" data-name="Sort by" class="cls-2" transform="translate(4 2)"><tspan x="0" y="9">Sort by</tspan></text>
    <g id="Rectangle_1" data-name="Rectangle 1" class="cls-3" transform="translate(4 15)">
      <rect class="cls-8" width="53" height="12" rx="2"/>
      <rect class="cls-9" x="0.35" y="0.35" width="52.3" height="11.3" rx="1.65"/>
    </g>
    <text id="Relevance" class="cls-4" transform="translate(7 17)"><tspan x="0" y="7">Relevance</tspan></text>
    <path id="Path_1" data-name="Path 1" class="cls-5" d="M48.755,20l2.426,2.719L53.6,20" transform="translate(0 1)"/>
    <text id="Price" class="cls-2" transform="translate(4 45)"><tspan x="0" y="9">Price</tspan></text>
    <path id="Path_6" data-name="Path 6" class="cls-6" d="M21.4,60.747h5.577v4.336l-2.9,2.521L21.4,65.083Z" transform="translate(6 84.806)"/>
    <g id="Group_1" data-name="Group 1" transform="translate(0 9)">
      <line id="Line_1" data-name="Line 1" class="cls-7" x2="40" transform="translate(10.5 53.5)"/>
      <path id="Path_2" data-name="Path 2" class="cls-6" d="M21.4,60.747h5.577v4.336l-2.9,2.521L21.4,65.083Z" transform="translate(-17 -10.194)"/>
      <path id="Path_3" data-name="Path 3" class="cls-6" d="M21.4,60.747h5.577v4.336l-2.9,2.521L21.4,65.083Z" transform="translate(30 -10.194)"/>
    </g>
    <g id="Group_2" data-name="Group 2" transform="translate(0 52)">
      <line id="Line_2" data-name="Line 2" class="cls-7" x2="40" transform="translate(10.5 53.5)"/>
      <path id="Path_4" data-name="Path 4" class="cls-6" d="M21.4,60.747h5.577v4.336l-2.9,2.521L21.4,65.083Z" transform="translate(-17 -10.194)"/>
      <path id="Path_5" data-name="Path 5" class="cls-6" d="M21.4,60.747h5.577v4.336l-2.9,2.521L21.4,65.083Z" transform="translate(30 -10.194)"/>
    </g>
    <text id="Year" class="cls-2" transform="translate(4 88)"><tspan x="0" y="9">Year</tspan></text>
    <text id="Radius" class="cls-2" transform="translate(4 131)"><tspan x="0" y="9">Radius</tspan></text>
    <line id="Line_3" data-name="Line 3" class="cls-7" x2="52" transform="translate(4.5 148.5)"/>
  </g>
</svg>
