<svg xmlns="http://www.w3.org/2000/svg" xmlns:xlink="http://www.w3.org/1999/xlink" viewBox="0 0 50 50">
  <defs>
    <style>
      .cls-1 {
        clip-path: url(#clip-Custom_Size_1);
      }

      .cls-2, .cls-5 {
        fill: none;
      }

      .cls-2 {
        stroke: #000;
        stroke-width: 1.5px;
      }

      .cls-3 {
        fill: #fff;
      }

      .cls-4 {
        stroke: none;
      }
    </style>
    <clipPath id="clip-Custom_Size_1">
      <rect width="50" height="50"/>
    </clipPath>
  </defs>
  <g id="Custom_Size_1" data-name="Custom Size – 1" class="cls-1">
    <rect class="cls-3" width="50" height="50"/>
    <g id="Ellipse_1" data-name="Ellipse 1" class="cls-2" transform="matrix(0.995, 0.105, -0.105, 0.995, 3.64, -1.377)">
      <circle class="cls-4" cx="24" cy="24" r="24"/>
      <circle class="cls-5" cx="24" cy="24" r="23.25"/>
    </g>
    <rect id="Rectangle_1" data-name="Rectangle 1" class="cls-3" width="12" height="4" transform="matrix(0.995, 0.105, -0.105, 0.995, 19.553, 0.295)"/>
    <rect id="Rectangle_2" data-name="Rectangle 2" class="cls-3" width="16" height="5" transform="matrix(0.995, 0.105, -0.105, 0.995, 17.047, 43.269)"/>
    <path id="Path_1" data-name="Path 1" class="cls-2" d="M27.908,2.306a11.977,11.977,0,0,0-8.9.854,7.565,7.565,0,0,0-4.119,6.658C14.71,16.2,24.135,26,24.135,26s10.45,9.437,7.517,15.575a10.675,10.675,0,0,1-5.679,5.089,19.061,19.061,0,0,1-9.129.747" transform="matrix(0.995, 0.105, -0.105, 0.995, 4.739, -2.267)"/>
    <path id="Path_2" data-name="Path 2" class="cls-2" d="M15.474,25.578s.261-1.856,4.879-1.856c2.207,0,5.882,1.552,9.442,1.856a6.064,6.064,0,0,0,5.249-1.856" transform="matrix(0.995, -0.105, 0.105, 0.995, -2.406, 2.804)"/>
  </g>
</svg>
